<svg width="32" height="32" viewBox="0 0 32 32" fill="none" xmlns="http://www.w3.org/2000/svg">
  <!-- Calendar base -->
  <rect x="4" y="6" width="24" height="22" rx="2" fill="#3b82f6" stroke="#1e40af" stroke-width="1"/>
  
  <!-- Calendar header -->
  <rect x="4" y="6" width="24" height="6" rx="2" fill="#1e40af"/>
  
  <!-- Calendar rings/bindings -->
  <rect x="9" y="2" width="2" height="8" rx="1" fill="#6b7280"/>
  <rect x="21" y="2" width="2" height="8" rx="1" fill="#6b7280"/>
  
  <!-- Calendar grid -->
  <g fill="#e5e7eb">
    <!-- Week 1 -->
    <rect x="6" y="14" width="3" height="3" rx="0.5"/>
    <rect x="10" y="14" width="3" height="3" rx="0.5"/>
    <rect x="14" y="14" width="3" height="3" rx="0.5"/>
    <rect x="18" y="14" width="3" height="3" rx="0.5"/>
    <rect x="22" y="14" width="3" height="3" rx="0.5"/>
    
    <!-- Week 2 -->
    <rect x="6" y="18" width="3" height="3" rx="0.5"/>
    <rect x="10" y="18" width="3" height="3" rx="0.5"/>
    <rect x="14" y="18" width="3" height="3" rx="0.5"/>
    <rect x="18" y="18" width="3" height="3" rx="0.5"/>
    <rect x="22" y="18" width="3" height="3" rx="0.5"/>
    
    <!-- Week 3 -->
    <rect x="6" y="22" width="3" height="3" rx="0.5"/>
    <rect x="10" y="22" width="3" height="3" rx="0.5"/>
    <!-- Highlighted day (today/selected) -->
    <rect x="14" y="22" width="3" height="3" rx="0.5" fill="#fbbf24"/>
    <rect x="18" y="22" width="3" height="3" rx="0.5"/>
    <rect x="22" y="22" width="3" height="3" rx="0.5"/>
  </g>
</svg> 